# xmcd
#
# Track frame offsets: 
#        225
#        16687
#        26437
#        36037
#        62437
#        81074
#        130874
#        167399
#        181799
#        196611
#        212698
#        229835
#        240147
#        249859
#        272209
#        283459
#        301534
#
# Disc length: 4079 seconds
#
# Revision: 0
# Processed by: cddbd v1.5.2PL0 Copyright (c) Steve Scherf et al.
# Submitted via: ExactAudioCopyFreeDBPlugin 1.0
#
DISCID=c60fec11
DTITLE=Claude Bourbon - Anthology  Disc 2 - Instrumentals
DYEAR=1900
DGENRE=Blues
TTITLE0=Lawrence Gibson
TTITLE1=Pouce Sonata
TTITLE2=My Lady Carey Dompe
TTITLE3=A Light in the Night
TTITLE4=Sweet Entreaty
TTITLE5=Passing Through
TTITLE6=Rodrigo
TTITLE7=Almansa
TTITLE8=Les Saintes
TTITLE9=Angie
TTITLE10=Ne Me Quitte Pas
TTITLE11=Apres L'Orage
TTITLE12=Au Dessus des Nuages
TTITLE13=Souviens-Toi
TTITLE14=1850
TTITLE15=Bolero
TTITLE16=Lawrence Gibson
EXTD=
EXTT0=
EXTT1=
EXTT2=
EXTT3=
EXTT4=
EXTT5=
EXTT6=
EXTT7=
EXTT8=
EXTT9=
EXTT10=
EXTT11=
EXTT12=
EXTT13=
EXTT14=
EXTT15=
EXTT16=
PLAYORDER=
